{"title":"Sta dixtya tou pepromenou ep 72 DVB-T By Ari Gr Subs","uid":12566005,"size":260045124,"categoryP":"video","categoryS":"tv_shows","magnet":"?xt=urn:btih:5b99b8fac51542f8d0ebf93e441169baa4dd5a6e&amp;dn=Sta+dixtya+tou+pepromenou+ep+72+DVB-T+By+Ari+Gr+Subs&amp;tr=udp%3A%2F%2Ftracker.leechers-paradise.org%3A6969&amp;tr=udp%3A%2F%2Fzer0day.ch%3A1337&amp;tr=udp%3A%2F%2Fopen.demonii.com%3A1337&amp;tr=udp%3A%2F%2Ftracker.coppersurfer.tk%3A6969&amp;tr=udp%3A%2F%2Fexodus.desync.com%3A6969","seeders":0,"leechers":0,"uploader":"Aris2015","files":1,"time":1444779316,"description":"General\r\nComplete name               : C:Userssta.dixtya.tou.pepromenou.ep.73.DVB-T.By.Ari.mp4\r\nFormat                      : AVI\r\nFormat/Info                 : Audio Video Interleave\r\nFile size                   : 248 MiB\r\nDuration                    : 263h 24mn\r\nOverall bit rate            : 2 194 bps\r\n\r\nVideo\r\nID                          : 0\r\nFormat                      : AVC\r\nFormat/Info                 : Advanced Video Codec\r\nFormat profile              :   \r\nFormat settings, CABAC      : Yes\r\nFormat settings, ReFrames   : 4 frames\r\nCodec ID                    : H264\r\nDuration                    : 46mn 18s\r\nBit rate                    : 606 Kbps\r\nWidth                       : 640 pixels\r\nHeight                      : 352 pixels\r\nDisplay aspect ratio        : 16:9\r\nFrame rate                  : 25.000 fps\r\nColor space                 : YUV\r\nChroma subsampling          : 4:2:0\r\nBit depth                   : 8 bits\r\nScan type                   : Progressive\r\nBits/(Pixel*Frame)          : 0.108\r\nStream size                 : 201 MiB (81%)\r\nColor range                 : Limited\r\nColor primaries             : BT.601 NTSC\r\nTransfer characteristics    : BT.709\r\nMatrix coefficients         : BT.601\r\n\r\nAudio\r\nID                          : 1\r\nFormat                      : AAC\r\nFormat/Info                 : Advanced Audio Codec\r\nFormat version              : Version 2\r\nFormat profile              : LTP\r\nMuxing mode                 : ADTS\r\nCodec ID                    : FF\r\nDuration                    : 263h 24mn\r\nSource duration             : 46mn 18s\r\nBit rate                    : 128 Kbps\r\nChannel(s)                  : 2 channels\r\nChannel(s)_Original         : 1 channel\r\nChannel positions           : Front: C\r\nSampling rate               : 11.025 KHz\r\nCompression mode            : Lossy\r\nDelay relative to video     : 2s 103ms\r\nStream size                 : 42.4 MiB (17%)\r\nAlignment                   : Split accross interleaves\r\nInterleave, duration        : 21 ms (0.53 video frame)","torrent":{"xt":"urn:btih:5b99b8fac51542f8d0ebf93e441169baa4dd5a6e","amp;dn":"Sta+dixtya+tou+pepromenou+ep+72+DVB-T+By+Ari+Gr+Subs","amp;tr":["udp%3A%2F%2Ftracker.leechers-paradise.org%3A6969","udp%3A%2F%2Fzer0day.ch%3A1337","udp%3A%2F%2Fopen.demonii.com%3A1337","udp%3A%2F%2Ftracker.coppersurfer.tk%3A6969","udp%3A%2F%2Fexodus.desync.com%3A6969"],"infoHash":"5b99b8fac51542f8d0ebf93e441169baa4dd5a6e","infoHashBuffer":{"type":"Buffer","data":[91,153,184,250,197,21,66,248,208,235,249,62,68,17,105,186,164,221,90,110]},"announce":[],"urlList":[]}}